<svg width="108" height="51" viewBox="0 0 108 51" fill="none" xmlns="http://www.w3.org/2000/svg">
<g clip-path="url(#clip0_3804_793)">
<path d="M0.487305 32.7131V3.86035H13.3937C16.0724 3.86035 18.3858 4.33335 20.2122 5.16109C22.1604 5.98883 23.6215 7.17132 24.7173 8.70856C25.6914 10.364 26.3002 12.1378 26.3002 14.3845C26.3002 16.513 25.6914 18.405 24.7173 19.9422C23.6215 21.4794 22.1604 22.6619 20.2122 23.4897C18.3858 24.3174 16.0724 24.7904 13.3937 24.7904H4.38358L7.42755 21.7159V32.7131H0.487305ZM7.42755 22.5437L4.38358 19.351H13.0285C15.0984 19.351 16.6812 18.878 17.777 18.0502C18.7511 17.1042 19.3599 15.9217 19.3599 14.3845C19.3599 12.729 18.7511 11.5465 17.777 10.6005C16.6812 9.7728 15.0984 9.2998 13.0285 9.2998H4.38358L7.42755 6.10708V22.5437Z" fill="white"/>
<path d="M31.292 7.52568C30.0744 7.52568 29.1004 7.17094 28.3698 6.46144C27.5175 5.75195 27.1522 4.92421 27.1522 3.85997C27.1522 2.91398 27.5175 2.08623 28.3698 1.37674C29.1004 0.667247 30.0744 0.3125 31.292 0.3125C32.5096 0.3125 33.4837 0.667247 34.2142 1.25849C35.0665 1.96798 35.4318 2.79573 35.4318 3.74172C35.4318 4.80596 35.0665 5.75195 34.2142 6.46144C33.4837 7.17094 32.5096 7.52568 31.292 7.52568Z" fill="#EB9A4A"/>
<path d="M28.0049 32.7131V10.6006H34.5799V32.7131H28.0049Z" fill="white"/>
<path d="M48.5819 33.0672C46.1467 33.0672 43.955 32.5942 42.0069 31.5299C40.1805 30.5839 38.5976 29.2832 37.5018 27.5095C36.406 25.854 35.9189 23.8437 35.9189 21.597C35.9189 19.4685 36.406 17.4583 37.5018 15.6846C38.5976 14.0291 40.1805 12.7283 42.0069 11.6641C43.955 10.7181 46.1467 10.2451 48.5819 10.2451C51.017 10.2451 53.0869 10.7181 54.9133 11.6641C56.7397 12.7283 57.9573 14.0291 58.8096 15.9211L53.6957 18.5225C53.0869 17.4583 52.3564 16.7488 51.5041 16.2758C50.6518 15.8028 49.6777 15.4481 48.5819 15.4481C47.486 15.4481 46.3902 15.8028 45.5379 16.2758C44.6856 16.7488 43.955 17.4583 43.3462 18.4043C42.8592 19.232 42.6157 20.2963 42.6157 21.597C42.6157 22.8978 42.8592 24.0802 43.3462 24.908C43.955 25.854 44.6856 26.5635 45.5379 27.0365C46.3902 27.5095 47.486 27.746 48.5819 27.746C49.6777 27.746 50.6518 27.5095 51.5041 27.0365C52.3564 26.5635 53.0869 25.854 53.6957 24.7897L58.8096 27.3912C57.9573 29.2832 56.7397 30.5839 54.9133 31.5299C53.0869 32.5942 51.017 33.0672 48.5819 33.0672Z" fill="white"/>
<path d="M73.1767 10.245C75.0031 10.245 76.7077 10.5998 78.0471 11.3093C79.5082 12.0188 80.604 13.083 81.4563 14.502C82.3086 15.921 82.6739 17.813 82.6739 20.0597V32.7123H76.0989V21.0057C76.0989 19.2319 75.6119 17.9312 74.8813 17.1035C74.029 16.2757 72.9332 15.8027 71.4721 15.8027C70.3763 15.8027 69.5239 16.0392 68.6716 16.394C67.8193 16.867 67.0888 17.4582 66.7235 18.4042C66.2365 19.2319 65.9929 20.4144 65.9929 21.7152V32.7123H59.418V2.2041H65.9929V16.7487L64.5318 14.8567C65.2624 13.3195 66.48 12.2553 68.0628 11.4275C69.5239 10.5998 71.2286 10.245 73.1767 10.245Z" fill="white"/>
<path fill-rule="evenodd" clip-rule="evenodd" d="M97.0419 33.0672C94.3632 33.0672 92.1715 32.5942 90.2234 31.5299C88.1535 30.5839 86.6924 29.2832 85.5965 27.5095C84.5007 25.7357 84.0137 23.8437 84.0137 21.597C84.0137 19.4685 84.5007 17.4583 85.5965 15.6846C86.6924 14.0291 88.1535 12.7283 89.9798 11.6641C91.8062 10.7181 93.8761 10.2451 96.1895 10.2451C98.3812 10.2451 100.451 10.7181 102.277 11.6641C103.982 12.4918 105.443 13.9108 106.539 15.5663C107.513 17.3401 108 19.3503 108 21.7153C108 21.9518 108 22.3065 108 22.543C108 22.8978 108 23.1343 107.878 23.489H90.7104C90.4669 22.1883 90.4669 21.0058 90.5886 19.705H101.79C101.79 18.9955 101.547 18.4043 101.182 17.813C100.695 16.9853 100.086 16.2758 99.2335 15.8028C98.3812 15.3298 97.4071 15.0933 96.1895 15.0933C95.0937 15.0933 94.1196 15.3298 93.2673 15.8028C92.415 16.2758 91.6845 16.9853 91.1974 17.813C90.7104 18.6408 90.4669 19.705 90.4669 20.8875V21.8335C90.4669 23.1343 90.7104 24.1985 91.3192 25.0262C91.928 25.9722 92.6585 26.6817 93.6326 27.1547C94.6067 27.6277 95.8243 27.8642 97.1636 27.8642C98.3812 27.8642 99.477 27.746 100.451 27.3912C101.303 27.0365 102.156 26.4452 102.886 25.7357L106.417 29.5197C105.443 30.5839 104.104 31.5299 102.521 32.1212C100.938 32.7124 99.1118 33.0672 97.0419 33.0672Z" fill="#65DD17"/>
<path d="M6.81849 50.6863C10.5842 50.6863 13.637 47.7215 13.637 44.0643C13.637 40.4071 10.5842 37.4424 6.81849 37.4424C3.05274 37.4424 0 40.4071 0 44.0643C0 47.7215 3.05274 50.6863 6.81849 50.6863Z" fill="#2B2E31"/>
<path fill-rule="evenodd" clip-rule="evenodd" d="M21.9167 38.0342C25.326 38.0342 28.0047 40.7539 28.0047 44.0649C28.0047 47.3758 25.326 50.0956 21.9167 50.0956C18.3857 50.0956 15.707 47.3758 15.707 44.0649C15.707 40.7539 18.3857 38.0342 21.9167 38.0342Z" fill="#354A44"/>
<path fill-rule="evenodd" clip-rule="evenodd" d="M36.8929 38.7434C39.9369 38.7434 42.4938 41.1084 42.4938 44.0646C42.4938 47.0208 39.9369 49.5041 36.8929 49.5041C33.8489 49.5041 31.292 47.0208 31.292 44.0646C31.292 41.1084 33.8489 38.7434 36.8929 38.7434Z" fill="#68BC4A"/>
<path fill-rule="evenodd" clip-rule="evenodd" d="M51.8694 39.335C54.6698 39.335 56.8615 41.4634 56.8615 44.0649C56.8615 46.6664 54.6698 48.9131 51.8694 48.9131C49.1907 48.9131 46.999 46.6664 46.999 44.0649C46.999 41.4634 49.1907 39.335 51.8694 39.335Z" fill="#65DD17"/>
<path fill-rule="evenodd" clip-rule="evenodd" d="M66.9673 39.9259C69.2807 39.9259 71.2289 41.8179 71.2289 44.0646C71.2289 46.4296 69.2807 48.2033 66.9673 48.2033C64.5321 48.2033 62.584 46.4296 62.584 44.0646C62.584 41.8179 64.5321 39.9259 66.9673 39.9259Z" fill="#83D947"/>
<path fill-rule="evenodd" clip-rule="evenodd" d="M81.9438 40.5176C83.8919 40.5176 85.5965 42.1731 85.5965 44.065C85.5965 46.0753 83.8919 47.6125 81.9438 47.6125C79.8739 47.6125 78.291 46.0753 78.291 44.065C78.291 42.1731 79.8739 40.5176 81.9438 40.5176Z" fill="#D2D15B"/>
<path d="M96.9203 46.9025C98.5342 46.9025 99.8425 45.6319 99.8425 44.0645C99.8425 42.4972 98.5342 41.2266 96.9203 41.2266C95.3064 41.2266 93.998 42.4972 93.998 44.0645C93.998 45.6319 95.3064 46.9025 96.9203 46.9025Z" fill="#EB9A4A"/>
</g>
<defs>
<clipPath id="clip0_3804_793">
<rect width="108" height="51" fill="white"/>
</clipPath>
</defs>
</svg>
